<svg version="1.1" id="Layer_1" xmlns="http://www.w3.org/2000/svg" xmlns:xlink="http://www.w3.org/1999/xlink" x="0px" y="0px"
	 width="100%" viewBox="0 0 1200 1200" enable-background="new 0 0 1200 1200" xml:space="preserve">
<path fill="#0D141A00" opacity="1.000000" stroke="none" 
	d="
M674.000000,1201.000000 
	C449.333344,1201.000000 225.166672,1201.000000 1.000000,1201.000000 
	C1.000000,801.000000 1.000000,401.000000 1.000000,1.000000 
	C401.000000,1.000000 801.000000,1.000000 1201.000000,1.000000 
	C1201.000000,401.000000 1201.000000,801.000000 1201.000000,1201.000000 
	C1025.500000,1201.000000 850.000000,1201.000000 674.000000,1201.000000 
M126.096657,607.546509 
	C110.462975,659.699951 107.427589,712.517456 117.883034,766.011963 
	C131.406723,835.204712 164.273834,893.900635 215.734833,941.731445 
	C270.321167,992.467285 335.107361,1021.271545 409.623291,1027.257202 
	C450.720306,1030.558350 491.147614,1026.469482 530.483521,1013.927063 
	C587.872986,995.628235 636.869202,964.183838 676.758301,918.882812 
	C679.504822,915.763672 682.237061,914.410461 686.513916,914.415588 
	C796.004333,914.547424 905.494995,914.520874 1014.985596,914.516846 
	C1022.599731,914.516541 1024.437744,913.088928 1026.110718,905.955688 
	C1044.671509,826.810364 1063.231323,747.664795 1081.789185,668.518799 
	C1084.483765,657.027283 1087.227661,645.546814 1089.836182,634.035767 
	C1091.660278,625.987061 1088.597290,622.072998 1080.635132,621.995239 
	C1078.516968,621.974548 1076.398438,621.992126 1074.112549,621.992126 
	C1072.649902,600.832275 1065.981812,582.014221 1053.281372,565.547424 
	C1054.775879,563.609680 1056.131714,561.926208 1057.408447,560.184875 
	C1072.087891,540.164490 1067.987671,512.683533 1047.760986,498.278503 
	C1044.060425,495.643066 1043.612671,493.349884 1044.383179,489.361847 
	C1050.536255,457.514282 1048.348999,426.273254 1035.586304,396.323700 
	C1016.743286,352.105804 983.148621,323.514313 938.558289,307.192261 
	C935.452881,306.055542 934.101196,304.330017 932.962036,301.601196 
	C911.265076,249.627731 874.213013,213.127014 821.769348,192.723328 
	C810.087219,188.178284 797.579834,185.592346 785.286926,182.844269 
	C778.640869,181.358521 774.846497,185.820908 775.898254,192.541534 
	C776.360535,195.495514 777.199585,198.394638 777.588440,201.355331 
	C780.094116,220.431061 775.917908,237.326431 761.265747,250.966980 
	C730.594971,235.310150 699.473389,232.306213 667.693054,247.422424 
	C666.862976,246.287827 666.155029,245.375687 665.505188,244.423843 
	C639.625183,206.517609 604.032288,183.465744 559.037842,174.778961 
	C553.843506,173.776108 549.936279,175.896637 549.042114,180.261703 
	C548.068359,185.015442 550.809814,188.905136 556.103943,189.908020 
	C582.126587,194.837631 605.365112,205.614624 625.686462,222.669220 
	C637.128662,232.272018 646.676697,243.444672 654.449158,255.920883 
	C619.359863,288.668793 611.949402,328.279358 623.713196,373.174072 
	C602.752014,379.590485 585.853638,392.159576 571.449585,408.007904 
	C570.754639,407.843475 570.411316,407.819275 570.118469,407.684906 
	C513.153381,381.543945 453.660767,372.477203 391.477844,380.862549 
	C337.773926,388.104462 289.068939,407.791473 245.615936,439.953888 
	C187.952301,482.634491 147.906097,538.166626 126.096657,607.546509 
z"/>
<path fill="#F0F2F8" opacity="1.000000" stroke="none" 
	d="
M126.216034,607.163696 
	C147.906097,538.166626 187.952301,482.634491 245.615936,439.953888 
	C289.068939,407.791473 337.773926,388.104462 391.477844,380.862549 
	C453.660767,372.477203 513.153381,381.543945 570.118469,407.684906 
	C570.411316,407.819275 570.754639,407.843475 571.449585,408.007904 
	C585.853638,392.159576 602.752014,379.590485 623.713196,373.174072 
	C611.949402,328.279358 619.359863,288.668793 654.449158,255.920883 
	C646.676697,243.444672 637.128662,232.272018 625.686462,222.669220 
	C605.365112,205.614624 582.126587,194.837631 556.103943,189.908020 
	C550.809814,188.905136 548.068359,185.015442 549.042114,180.261703 
	C549.936279,175.896637 553.843506,173.776108 559.037842,174.778961 
	C604.032288,183.465744 639.625183,206.517609 665.505188,244.423843 
	C666.155029,245.375687 666.862976,246.287827 667.693054,247.422424 
	C699.473389,232.306213 730.594971,235.310150 761.265747,250.966980 
	C775.917908,237.326431 780.094116,220.431061 777.588440,201.355331 
	C777.199585,198.394638 776.360535,195.495514 775.898254,192.541534 
	C774.846497,185.820908 778.640869,181.358521 785.286926,182.844269 
	C797.579834,185.592346 810.087219,188.178284 821.769348,192.723328 
	C874.213013,213.127014 911.265076,249.627731 932.962036,301.601196 
	C934.101196,304.330017 935.452881,306.055542 938.558289,307.192261 
	C983.148621,323.514313 1016.743286,352.105804 1035.586304,396.323700 
	C1048.348999,426.273254 1050.536255,457.514282 1044.383179,489.361847 
	C1043.612671,493.349884 1044.060425,495.643066 1047.760986,498.278503 
	C1067.987671,512.683533 1072.087891,540.164490 1057.408447,560.184875 
	C1056.131714,561.926208 1054.775879,563.609680 1053.281372,565.547424 
	C1065.981812,582.014221 1072.649902,600.832275 1074.112549,621.992126 
	C1076.398438,621.992126 1078.516968,621.974548 1080.635132,621.995239 
	C1088.597290,622.072998 1091.660278,625.987061 1089.836182,634.035767 
	C1087.227661,645.546814 1084.483765,657.027283 1081.789185,668.518799 
	C1063.231323,747.664795 1044.671509,826.810364 1026.110718,905.955688 
	C1024.437744,913.088928 1022.599731,914.516541 1014.985596,914.516846 
	C905.494995,914.520874 796.004333,914.547424 686.513916,914.415588 
	C682.237061,914.410461 679.504822,915.763672 676.758301,918.882812 
	C636.869202,964.183838 587.872986,995.628235 530.483521,1013.927063 
	C491.147614,1026.469482 450.720306,1030.558350 409.623291,1027.257202 
	C335.107361,1021.271545 270.321167,992.467285 215.734833,941.731445 
	C164.273834,893.900635 131.406723,835.204712 117.883034,766.011963 
	C107.427589,712.517456 110.462975,659.699951 126.216034,607.163696 
M794.048950,200.281891 
	C793.862061,200.677032 793.675232,201.072174 793.376831,202.341156 
	C795.651672,225.375839 789.857849,245.796310 772.432983,261.622406 
	C763.853455,269.414673 754.173218,276.050323 744.675781,282.763245 
	C731.428345,292.126770 718.484863,301.713745 709.469666,315.578552 
	C699.430420,331.018280 694.744385,348.048370 693.895996,366.579895 
	C724.147949,368.161621 749.586304,360.046082 766.842712,333.915161 
	C770.309875,328.665009 772.973572,322.889191 776.111633,317.415283 
	C778.541016,313.177307 782.808472,311.650177 786.725464,313.430389 
	C790.428833,315.113556 791.970642,319.736603 789.980835,324.142212 
	C788.136780,328.225098 786.167725,332.283600 783.873840,336.126099 
	C768.121338,362.513275 745.689331,378.985992 714.402405,381.031250 
	C698.639526,382.061676 682.781006,381.676910 666.964783,381.831543 
	C646.835876,382.028320 627.575806,385.727753 610.063843,396.136963 
	C601.244263,401.379364 593.052673,407.495392 586.359802,415.160797 
	C595.918213,421.044739 605.343018,426.381500 614.258728,432.464447 
	C623.322021,438.648041 632.170837,445.220581 640.614014,452.224976 
	C674.617371,480.434052 701.771606,514.227966 722.074768,553.489258 
	C723.202087,555.669067 724.264648,557.092896 727.231079,557.078979 
	C757.227478,556.937744 787.224976,557.023376 817.221558,556.905518 
	C818.775940,556.899475 820.798096,556.038147 821.806030,554.881226 
	C837.146545,537.273132 850.967346,518.531372 862.932922,498.465179 
	C887.893555,456.606537 904.339294,411.601227 912.612793,363.580566 
	C913.993164,355.569031 916.972717,352.718872 922.275391,353.669495 
	C927.508423,354.607574 929.259583,358.513977 927.865723,366.443207 
	C916.742249,429.721161 892.650818,487.489105 854.373413,539.216064 
	C850.082336,545.014771 845.692078,550.739990 841.303040,556.558594 
	C841.813232,556.800659 841.947693,556.920471 842.082214,556.920532 
	C907.074768,556.949951 972.067261,556.980042 1037.059814,556.929504 
	C1038.378052,556.928528 1039.993286,556.315247 1040.968994,555.433289 
	C1056.156372,541.705933 1052.679932,517.100830 1034.341309,508.037689 
	C1025.932129,503.881836 1025.422119,502.720551 1027.567017,493.762726 
	C1033.489380,469.028931 1034.117798,444.224243 1027.094116,419.665710 
	C1012.713562,369.383118 978.799255,337.929535 930.351746,320.985474 
	C925.422302,319.261475 922.184570,317.011230 920.274841,311.892975 
	C907.850403,278.594330 887.447937,251.200684 858.654846,230.219635 
	C839.230286,216.065277 818.075378,205.596710 794.048950,200.281891 
M148.048096,688.395874 
	C157.888199,708.684875 171.044983,726.398010 187.556854,741.883057 
	C195.237106,749.085632 202.473053,757.302307 207.878937,766.282227 
	C220.849304,787.827515 220.975281,811.533691 216.520126,835.512146 
	C212.794052,855.566589 205.734680,874.530945 197.407608,893.079712 
	C196.649628,894.768188 196.155762,897.722717 197.067688,898.826355 
	C202.785782,905.746338 208.039978,913.511414 215.102219,918.778442 
	C244.754654,940.893494 277.573944,946.099548 312.833160,934.501526 
	C319.127167,932.431213 325.115723,929.362976 331.475861,927.576050 
	C350.771210,922.154968 369.632050,922.732727 386.094635,935.443970 
	C392.540131,940.420715 397.951843,947.116943 402.715485,953.824707 
	C422.333344,981.448792 456.456024,988.977295 485.699158,971.956970 
	C495.809906,966.072144 502.388153,956.893250 509.824097,948.378479 
	C530.826599,924.328430 557.412903,915.935059 588.495789,921.633484 
	C604.202515,924.513000 617.712524,932.213562 629.745728,942.797241 
	C630.769958,942.035950 631.739380,941.400146 632.613831,940.653198 
	C669.667786,909.003235 698.074829,870.958618 717.779114,826.332642 
	C720.331909,820.551025 720.682190,816.338684 715.597534,812.165649 
	C713.969238,810.829346 712.907227,808.795044 711.615051,807.058472 
	C684.496643,770.614563 673.073914,730.029724 680.210083,684.886230 
	C685.372986,652.225525 699.251953,623.465759 721.093201,598.613342 
	C722.858765,596.604309 723.808533,595.096741 722.664062,592.167725 
	C708.399963,555.662170 688.250122,522.832092 661.674316,494.009125 
	C660.716736,492.970551 658.254395,492.497589 656.798523,492.890778 
	C651.999023,494.186829 647.391174,496.175323 642.618774,497.591370 
	C606.885925,508.193756 577.131714,498.598022 557.227600,469.825806 
	C546.012817,453.614319 541.346252,435.223907 540.510254,415.750153 
	C540.395874,413.085632 539.698975,411.757599 536.936096,410.786102 
	C508.315674,400.722351 478.894745,395.140167 448.581909,393.709259 
	C442.565826,393.425262 440.209900,395.349792 437.849854,400.649414 
	C427.781982,423.257324 411.675507,439.594238 386.737793,444.915894 
	C358.701996,450.898712 334.930267,441.804901 314.664856,422.429138 
	C312.339600,420.205963 310.662598,419.682861 307.888000,421.176453 
	C297.650696,426.687256 287.373016,432.126740 277.022949,437.421875 
	C274.395691,438.765991 273.711395,440.471954 273.849396,443.313354 
	C274.403412,454.721283 272.857513,465.888245 269.340973,476.770691 
	C256.575317,516.275940 220.954895,540.912537 177.110031,540.271729 
	C173.988556,540.226196 172.717422,541.314575 171.345062,543.627563 
	C154.945160,571.267517 143.173355,600.740417 135.375732,631.920410 
	C132.773453,642.326111 132.612610,652.173035 136.871185,662.046936 
	C140.550812,670.578491 144.135910,679.150818 148.048096,688.395874 
M1030.500000,621.992249 
	C1039.756104,621.992249 1049.012085,621.992249 1058.393555,621.992249 
	C1057.441895,604.612793 1051.800537,589.639771 1041.701172,576.230530 
	C1039.573730,573.405823 1037.296753,572.436096 1033.775635,572.439575 
	C934.961243,572.538757 836.146667,572.519226 737.332153,572.519226 
	C735.592041,572.519226 733.851929,572.519226 732.087402,572.519226 
	C737.868225,589.265930 743.427002,605.369507 749.164978,621.992249 
	C842.257141,621.992249 935.878601,621.992249 1030.500000,621.992249 
M931.699280,743.217834 
	C930.473267,753.460571 929.228149,763.701111 928.024963,773.946533 
	C924.492859,804.022217 920.970215,834.098999 917.459045,864.177185 
	C916.117981,875.665527 914.818298,887.158630 913.505371,898.600098 
	C932.910828,898.600098 951.792969,898.600098 970.653320,898.600098 
	C980.835266,811.544861 990.971497,724.880066 1001.123779,638.078430 
	C981.740784,638.078430 962.987549,638.078430 943.902466,638.078430 
	C939.858704,672.955261 935.837280,707.639832 931.699280,743.217834 
M855.863708,660.500000 
	C855.863708,739.902161 855.863708,819.304321 855.863708,898.693359 
	C870.183594,898.693359 883.926697,898.693359 897.776123,898.693359 
	C907.956421,811.701111 918.103577,724.991760 928.260925,638.195312 
	C903.795959,638.195312 879.918884,638.195312 855.863770,638.195312 
	C855.863770,645.529419 855.863770,652.514709 855.863708,660.500000 
M840.149780,772.500061 
	C840.149780,727.737366 840.149780,682.974670 840.149780,638.182373 
	C815.763672,638.182373 791.889282,638.182373 767.758911,638.182373 
	C777.944153,725.282959 788.086914,812.020874 798.222778,898.699707 
	C812.444214,898.699707 826.188965,898.699707 840.150391,898.699707 
	C840.150391,856.771362 840.150391,815.135742 840.149780,772.500061 
M377.362488,948.032654 
	C372.103668,945.680481 367.047516,942.524170 361.545319,941.137573 
	C348.699127,937.900085 336.531891,941.454956 324.700745,946.462708 
	C304.968811,954.814697 284.482880,957.849976 263.191528,955.026001 
	C260.916473,954.724243 258.656403,954.309448 255.225983,953.761108 
	C368.581909,1037.399902 521.044312,1027.606323 617.018372,952.232605 
	C593.609131,934.745117 568.662231,929.948853 541.599487,942.445862 
	C530.594360,947.527832 522.960449,956.561646 515.466736,965.868835 
	C498.536682,986.895874 476.330597,997.794434 449.260590,996.443909 
	C423.217621,995.144714 403.565460,981.900391 388.756378,960.802612 
	C385.631348,956.350464 381.578522,952.549622 377.362488,948.032654 
M1039.894165,779.291687 
	C1050.862061,732.279053 1061.829956,685.266418 1072.835815,638.091309 
	C1053.912842,638.091309 1035.478271,638.091309 1016.782410,638.091309 
	C1006.608154,725.071716 996.459106,811.837219 986.292542,898.751892 
	C994.974854,898.751892 1003.404114,898.751892 1011.847717,898.751892 
	C1021.171387,859.052429 1030.441895,819.579590 1039.894165,779.291687 
M182.445328,879.888123 
	C183.137894,880.787659 183.830460,881.687256 184.625778,882.720276 
	C185.112686,882.002991 185.587372,881.503601 185.835129,880.909607 
	C192.756897,864.313049 198.809418,847.435242 201.691101,829.600708 
	C206.436905,800.229248 201.531372,773.923584 177.646973,753.512207 
	C158.741745,737.356140 144.852921,717.366455 133.968109,695.166504 
	C132.200562,691.561401 130.437164,687.954346 128.671844,684.348267 
	C124.262718,755.554626 141.919525,820.539795 182.445328,879.888123 
M764.502136,744.069092 
	C762.880371,730.267639 761.258606,716.466187 759.636780,702.664673 
	C758.066589,774.807922 736.627075,840.194519 693.608398,898.636963 
	C723.664307,898.636963 752.997314,898.636963 782.533508,898.636963 
	C776.548401,847.158325 770.607178,796.057251 764.502136,744.069092 
M696.720642,738.705811 
	C701.491150,761.934082 712.102417,782.333496 726.597656,801.114319 
	C746.625427,762.193970 748.056091,643.921082 728.820007,612.895142 
	C700.138000,650.086609 688.010437,691.300537 696.720642,738.705811 
M735.585327,270.095917 
	C739.557678,267.468445 743.530090,264.841003 748.355225,261.649506 
	C723.487915,251.179230 699.763733,249.522110 675.837891,261.012512 
	C678.871521,268.632019 681.870789,275.803406 684.580078,283.082764 
	C686.826843,289.119354 685.248901,293.427460 680.577087,295.114014 
	C675.764587,296.851318 672.216431,294.453156 669.948059,288.302643 
	C667.737244,282.308167 665.264343,276.410370 662.842957,270.309784 
	C634.685181,292.305481 627.282898,339.213470 639.377747,368.132416 
	C652.353394,367.265198 665.094055,366.413696 678.176758,365.539307 
	C678.393066,363.493774 678.659485,361.206909 678.873169,358.915131 
	C680.182068,344.877472 683.753418,331.470245 689.813660,318.713745 
	C699.742065,297.815063 716.205566,283.081848 735.585327,270.095917 
M583.272644,475.266693 
	C600.456299,490.216095 629.294739,487.844360 647.298706,478.941498 
	C620.557068,453.457642 590.561707,433.200836 556.079468,418.496094 
	C558.296143,441.079346 565.485229,460.343872 583.272644,475.266693 
M394.024231,396.414001 
	C371.297302,399.193054 349.358276,405.011658 327.652740,413.068787 
	C358.204681,441.814240 407.104584,436.381622 423.857605,393.533295 
	C413.972443,394.460571 404.437042,395.355042 394.024231,396.414001 
M201.855408,501.356079 
	C196.018005,508.717834 190.180603,516.079590 183.937912,523.952454 
	C225.840195,523.598938 258.448425,489.058746 257.667023,451.016479 
	C246.397614,456.794556 219.274658,481.190613 201.855408,501.356079 
z"/>
<path fill="#0E151B00" opacity="1.000000" stroke="none" 
	d="
M147.905457,688.050476 
	C144.135910,679.150818 140.550812,670.578491 136.871185,662.046936 
	C132.612610,652.173035 132.773453,642.326111 135.375732,631.920410 
	C143.173355,600.740417 154.945160,571.267517 171.345062,543.627563 
	C172.717422,541.314575 173.988556,540.226196 177.110031,540.271729 
	C220.954895,540.912537 256.575317,516.275940 269.340973,476.770691 
	C272.857513,465.888245 274.403412,454.721283 273.849396,443.313354 
	C273.711395,440.471954 274.395691,438.765991 277.022949,437.421875 
	C287.373016,432.126740 297.650696,426.687256 307.888000,421.176453 
	C310.662598,419.682861 312.339600,420.205963 314.664856,422.429138 
	C334.930267,441.804901 358.701996,450.898712 386.737793,444.915894 
	C411.675507,439.594238 427.781982,423.257324 437.849854,400.649414 
	C440.209900,395.349792 442.565826,393.425262 448.581909,393.709259 
	C478.894745,395.140167 508.315674,400.722351 536.936096,410.786102 
	C539.698975,411.757599 540.395874,413.085632 540.510254,415.750153 
	C541.346252,435.223907 546.012817,453.614319 557.227600,469.825806 
	C577.131714,498.598022 606.885925,508.193756 642.618774,497.591370 
	C647.391174,496.175323 651.999023,494.186829 656.798523,492.890778 
	C658.254395,492.497589 660.716736,492.970551 661.674316,494.009125 
	C688.250122,522.832092 708.399963,555.662170 722.664062,592.167725 
	C723.808533,595.096741 722.858765,596.604309 721.093201,598.613342 
	C699.251953,623.465759 685.372986,652.225525 680.210083,684.886230 
	C673.073914,730.029724 684.496643,770.614563 711.615051,807.058472 
	C712.907227,808.795044 713.969238,810.829346 715.597534,812.165649 
	C720.682190,816.338684 720.331909,820.551025 717.779114,826.332642 
	C698.074829,870.958618 669.667786,909.003235 632.613831,940.653198 
	C631.739380,941.400146 630.769958,942.035950 629.745728,942.797241 
	C617.712524,932.213562 604.202515,924.513000 588.495789,921.633484 
	C557.412903,915.935059 530.826599,924.328430 509.824097,948.378479 
	C502.388153,956.893250 495.809906,966.072144 485.699158,971.956970 
	C456.456024,988.977295 422.333344,981.448792 402.715485,953.824707 
	C397.951843,947.116943 392.540131,940.420715 386.094635,935.443970 
	C369.632050,922.732727 350.771210,922.154968 331.475861,927.576050 
	C325.115723,929.362976 319.127167,932.431213 312.833160,934.501526 
	C277.573944,946.099548 244.754654,940.893494 215.102219,918.778442 
	C208.039978,913.511414 202.785782,905.746338 197.067688,898.826355 
	C196.155762,897.722717 196.649628,894.768188 197.407608,893.079712 
	C205.734680,874.530945 212.794052,855.566589 216.520126,835.512146 
	C220.975281,811.533691 220.849304,787.827515 207.878937,766.282227 
	C202.473053,757.302307 195.237106,749.085632 187.556854,741.883057 
	C171.044983,726.398010 157.888199,708.684875 147.905457,688.050476 
M507.954254,810.473145 
	C552.684326,777.057861 571.993530,732.650940 561.478882,677.714355 
	C543.026855,581.307068 428.793152,540.803833 352.950928,602.968262 
	C298.077026,647.945923 289.903564,730.930847 335.295288,785.514404 
	C361.387939,816.890808 395.017517,832.933716 436.026520,833.008240 
	C462.109650,833.055664 485.710052,825.106567 507.954254,810.473145 
M656.455872,809.135986 
	C654.369446,796.012451 645.338501,788.183899 632.203613,788.155762 
	C621.725098,788.133362 611.246399,788.122192 600.767944,788.158691 
	C586.664551,788.207825 576.418335,798.383972 576.441040,812.260437 
	C576.464294,826.481384 586.309021,836.436035 600.519165,836.511902 
	C611.163757,836.568726 621.809082,836.568176 632.453674,836.512329 
	C647.643066,836.432678 657.734253,825.318970 656.455872,809.135986 
M278.828094,533.324951 
	C275.011871,537.271606 270.941742,541.005981 267.430328,545.207397 
	C259.179657,555.079529 260.238373,568.331421 269.717712,577.540039 
	C278.691071,586.257080 292.479156,586.830872 301.700104,578.189087 
	C310.677124,569.775940 319.371918,561.012695 327.632324,551.897278 
	C336.328247,542.301270 334.649567,527.709656 324.463318,518.435913 
	C315.678406,510.437988 300.951385,511.017517 292.334625,519.702698 
	C287.997437,524.074341 283.664032,528.449768 278.828094,533.324951 
M470.339020,861.829285 
	C463.484192,868.867249 456.210419,875.550781 449.880188,883.032593 
	C441.916565,892.445068 443.291931,905.578064 452.342712,914.608704 
	C460.657898,922.905334 474.120941,924.465149 482.753815,916.780701 
	C492.802673,907.835815 502.332764,898.181091 511.142609,888.015137 
	C517.221252,881.000916 517.870544,872.132629 513.437195,863.652344 
	C508.963623,855.095154 501.965668,850.089539 491.954926,849.797791 
	C482.607483,849.525330 476.535248,855.034912 470.339020,861.829285 
M249.189697,708.909424 
	C265.724304,700.270325 268.563965,682.053162 255.404297,668.757080 
	C248.151947,661.429626 240.836990,654.163696 233.517532,646.902954 
	C223.841324,637.304504 209.951614,636.971436 200.506378,646.072876 
	C190.352066,655.857727 189.553650,669.789917 198.984207,679.868408 
	C206.819778,688.242371 214.903030,696.405884 223.216431,704.304932 
	C230.435226,711.163940 238.953140,713.186462 249.189697,708.909424 
M347.712341,895.916748 
	C348.167938,893.477356 348.986359,891.042603 349.017273,888.597839 
	C349.162506,877.109924 349.268799,865.615906 349.052216,854.130432 
	C348.787781,840.105713 338.587952,830.322937 324.801788,830.484070 
	C311.146973,830.643616 301.279175,840.764832 301.184113,854.828186 
	C301.113220,865.318420 301.118683,875.809875 301.183472,886.300232 
	C301.261566,898.946106 308.263702,907.955078 319.922455,910.575867 
	C331.375732,913.150452 341.803101,907.832642 347.712341,895.916748 
M480.961029,462.390472 
	C469.109131,456.143494 457.518982,458.652374 449.610382,469.176910 
	C442.307251,478.895538 443.240295,491.188995 452.198822,500.388977 
	C460.205414,508.611420 468.156982,516.912109 476.566650,524.710510 
	C485.363159,532.867554 498.496307,532.537842 507.413300,524.575256 
	C516.886108,516.116333 519.514221,502.404755 511.677399,493.244446 
	C502.427460,482.432404 491.655823,472.922211 480.961029,462.390472 
M649.433044,576.783386 
	C654.604492,565.817017 652.225037,554.969421 642.946045,547.209961 
	C635.190735,540.724670 622.242004,539.523804 614.706482,546.280701 
	C604.203613,555.698425 594.166992,565.806824 585.100708,576.602173 
	C577.741943,585.364258 580.032410,598.578552 588.541687,606.386414 
	C597.823853,614.903687 610.215881,615.801392 619.402161,608.329834 
	C623.133728,605.294739 626.551636,601.833496 629.862244,598.329956 
	C636.356873,591.456726 642.676147,584.417725 649.433044,576.783386 
z"/>
<path fill="#0E151B00" opacity="1.000000" stroke="none" 
	d="
M794.427246,200.557770 
	C818.075378,205.596710 839.230286,216.065277 858.654846,230.219635 
	C887.447937,251.200684 907.850403,278.594330 920.274841,311.892975 
	C922.184570,317.011230 925.422302,319.261475 930.351746,320.985474 
	C978.799255,337.929535 1012.713562,369.383118 1027.094116,419.665710 
	C1034.117798,444.224243 1033.489380,469.028931 1027.567017,493.762726 
	C1025.422119,502.720551 1025.932129,503.881836 1034.341309,508.037689 
	C1052.679932,517.100830 1056.156372,541.705933 1040.968994,555.433289 
	C1039.993286,556.315247 1038.378052,556.928528 1037.059814,556.929504 
	C972.067261,556.980042 907.074768,556.949951 842.082214,556.920532 
	C841.947693,556.920471 841.813232,556.800659 841.303040,556.558594 
	C845.692078,550.739990 850.082336,545.014771 854.373413,539.216064 
	C892.650818,487.489105 916.742249,429.721161 927.865723,366.443207 
	C929.259583,358.513977 927.508423,354.607574 922.275391,353.669495 
	C916.972717,352.718872 913.993164,355.569031 912.612793,363.580566 
	C904.339294,411.601227 887.893555,456.606537 862.932922,498.465179 
	C850.967346,518.531372 837.146545,537.273132 821.806030,554.881226 
	C820.798096,556.038147 818.775940,556.899475 817.221558,556.905518 
	C787.224976,557.023376 757.227478,556.937744 727.231079,557.078979 
	C724.264648,557.092896 723.202087,555.669067 722.074768,553.489258 
	C701.771606,514.227966 674.617371,480.434052 640.614014,452.224976 
	C632.170837,445.220581 623.322021,438.648041 614.258728,432.464447 
	C605.343018,426.381500 595.918213,421.044739 586.359802,415.160797 
	C593.052673,407.495392 601.244263,401.379364 610.063843,396.136963 
	C627.575806,385.727753 646.835876,382.028320 666.964783,381.831543 
	C682.781006,381.676910 698.639526,382.061676 714.402405,381.031250 
	C745.689331,378.985992 768.121338,362.513275 783.873840,336.126099 
	C786.167725,332.283600 788.136780,328.225098 789.980835,324.142212 
	C791.970642,319.736603 790.428833,315.113556 786.725464,313.430389 
	C782.808472,311.650177 778.541016,313.177307 776.111633,317.415283 
	C772.973572,322.889191 770.309875,328.665009 766.842712,333.915161 
	C749.586304,360.046082 724.147949,368.161621 693.895996,366.579895 
	C694.744385,348.048370 699.430420,331.018280 709.469666,315.578552 
	C718.484863,301.713745 731.428345,292.126770 744.675781,282.763245 
	C754.173218,276.050323 763.853455,269.414673 772.432983,261.622406 
	C789.857849,245.796310 795.651672,225.375839 793.672363,201.682053 
	C794.121033,200.867889 794.274109,200.712830 794.427246,200.557770 
z"/>
<path fill="#0D141A00" opacity="1.000000" stroke="none" 
	d="
M1030.000000,621.992249 
	C935.878601,621.992249 842.257141,621.992249 749.164978,621.992249 
	C743.427002,605.369507 737.868225,589.265930 732.087402,572.519226 
	C733.851929,572.519226 735.592041,572.519226 737.332153,572.519226 
	C836.146667,572.519226 934.961243,572.538757 1033.775635,572.439575 
	C1037.296753,572.436096 1039.573730,573.405823 1041.701172,576.230530 
	C1051.800537,589.639771 1057.441895,604.612793 1058.393555,621.992249 
	C1049.012085,621.992249 1039.756104,621.992249 1030.000000,621.992249 
z"/>
<path fill="#0E151B00" opacity="1.000000" stroke="none" 
	d="
M931.757568,742.771118 
	C935.837280,707.639832 939.858704,672.955261 943.902466,638.078430 
	C962.987549,638.078430 981.740784,638.078430 1001.123779,638.078430 
	C990.971497,724.880066 980.835266,811.544861 970.653320,898.600098 
	C951.792969,898.600098 932.910828,898.600098 913.505371,898.600098 
	C914.818298,887.158630 916.117981,875.665527 917.459045,864.177185 
	C920.970215,834.098999 924.492859,804.022217 928.024963,773.946533 
	C929.228149,763.701111 930.473267,753.460571 931.757568,742.771118 
z"/>
<path fill="#0E141A00" opacity="1.000000" stroke="none" 
	d="
M855.863770,660.000000 
	C855.863770,652.514709 855.863770,645.529419 855.863770,638.195312 
	C879.918884,638.195312 903.795959,638.195312 928.260925,638.195312 
	C918.103577,724.991760 907.956421,811.701111 897.776123,898.693359 
	C883.926697,898.693359 870.183594,898.693359 855.863708,898.693359 
	C855.863708,819.304321 855.863708,739.902161 855.863770,660.000000 
z"/>
<path fill="#0E141A00" opacity="1.000000" stroke="none" 
	d="
M840.150085,773.000122 
	C840.150391,815.135742 840.150391,856.771362 840.150391,898.699707 
	C826.188965,898.699707 812.444214,898.699707 798.222778,898.699707 
	C788.086914,812.020874 777.944153,725.282959 767.758911,638.182373 
	C791.889282,638.182373 815.763672,638.182373 840.149780,638.182373 
	C840.149780,682.974670 840.149780,727.737366 840.150085,773.000122 
z"/>
<path fill="#0F161C00" opacity="1.000000" stroke="none" 
	d="
M377.657837,948.240662 
	C381.578522,952.549622 385.631348,956.350464 388.756378,960.802612 
	C403.565460,981.900391 423.217621,995.144714 449.260590,996.443909 
	C476.330597,997.794434 498.536682,986.895874 515.466736,965.868835 
	C522.960449,956.561646 530.594360,947.527832 541.599487,942.445862 
	C568.662231,929.948853 593.609131,934.745117 617.018372,952.232605 
	C521.044312,1027.606323 368.581909,1037.399902 255.225983,953.761108 
	C258.656403,954.309448 260.916473,954.724243 263.191528,955.026001 
	C284.482880,957.849976 304.968811,954.814697 324.700745,946.462708 
	C336.531891,941.454956 348.699127,937.900085 361.545319,941.137573 
	C367.047516,942.524170 372.103668,945.680481 377.657837,948.240662 
z"/>
<path fill="#0E151B00" opacity="1.000000" stroke="none" 
	d="
M1039.803223,779.699219 
	C1030.441895,819.579590 1021.171387,859.052429 1011.847717,898.751892 
	C1003.404114,898.751892 994.974854,898.751892 986.292542,898.751892 
	C996.459106,811.837219 1006.608154,725.071716 1016.782410,638.091309 
	C1035.478271,638.091309 1053.912842,638.091309 1072.835815,638.091309 
	C1061.829956,685.266418 1050.862061,732.279053 1039.803223,779.699219 
z"/>
<path fill="#0F161C00" opacity="1.000000" stroke="none" 
	d="
M182.247620,879.599854 
	C141.919525,820.539795 124.262718,755.554626 128.671844,684.348267 
	C130.437164,687.954346 132.200562,691.561401 133.968109,695.166504 
	C144.852921,717.366455 158.741745,737.356140 177.646973,753.512207 
	C201.531372,773.923584 206.436905,800.229248 201.691101,829.600708 
	C198.809418,847.435242 192.756897,864.313049 185.835129,880.909607 
	C185.587372,881.503601 185.112686,882.002991 184.625778,882.720276 
	C183.830460,881.687256 183.137894,880.787659 182.247620,879.599854 
z"/>
<path fill="#0F161C00" opacity="1.000000" stroke="none" 
	d="
M764.583984,744.512695 
	C770.607178,796.057251 776.548401,847.158325 782.533508,898.636963 
	C752.997314,898.636963 723.664307,898.636963 693.608398,898.636963 
	C736.627075,840.194519 758.066589,774.807922 759.636780,702.664673 
	C761.258606,716.466187 762.880371,730.267639 764.583984,744.512695 
z"/>
<path fill="#0F161C00" opacity="1.000000" stroke="none" 
	d="
M696.592590,738.300293 
	C688.010437,691.300537 700.138000,650.086609 728.820007,612.895142 
	C748.056091,643.921082 746.625427,762.193970 726.597656,801.114319 
	C712.102417,782.333496 701.491150,761.934082 696.592590,738.300293 
z"/>
<path fill="#0F161C00" opacity="1.000000" stroke="none" 
	d="
M735.296021,270.309631 
	C716.205566,283.081848 699.742065,297.815063 689.813660,318.713745 
	C683.753418,331.470245 680.182068,344.877472 678.873169,358.915131 
	C678.659485,361.206909 678.393066,363.493774 678.176758,365.539307 
	C665.094055,366.413696 652.353394,367.265198 639.377747,368.132416 
	C627.282898,339.213470 634.685181,292.305481 662.842957,270.309784 
	C665.264343,276.410370 667.737244,282.308167 669.948059,288.302643 
	C672.216431,294.453156 675.764587,296.851318 680.577087,295.114014 
	C685.248901,293.427460 686.826843,289.119354 684.580078,283.082764 
	C681.870789,275.803406 678.871521,268.632019 675.837891,261.012512 
	C699.763733,249.522110 723.487915,251.179230 748.355225,261.649506 
	C743.530090,264.841003 739.557678,267.468445 735.296021,270.309631 
z"/>
<path fill="#0F161C00" opacity="1.000000" stroke="none" 
	d="
M582.976562,475.066589 
	C565.485229,460.343872 558.296143,441.079346 556.079468,418.496094 
	C590.561707,433.200836 620.557068,453.457642 647.298706,478.941498 
	C629.294739,487.844360 600.456299,490.216095 582.976562,475.066589 
z"/>
<path fill="#10171D00" opacity="1.000000" stroke="none" 
	d="
M394.462952,396.331787 
	C404.437042,395.355042 413.972443,394.460571 423.857605,393.533295 
	C407.104584,436.381622 358.204681,441.814240 327.652740,413.068787 
	C349.358276,405.011658 371.297302,399.193054 394.462952,396.331787 
z"/>
<path fill="#10171D00" opacity="1.000000" stroke="none" 
	d="
M202.081161,501.083435 
	C219.274658,481.190613 246.397614,456.794556 257.667023,451.016479 
	C258.448425,489.058746 225.840195,523.598938 183.937912,523.952454 
	C190.180603,516.079590 196.018005,508.717834 202.081161,501.083435 
z"/>
<path fill="#0E151B00" opacity="1.000000" stroke="none" 
	d="
M793.728149,201.245148 
	C793.675232,201.072174 793.862061,200.677032 794.238098,200.419830 
	C794.274109,200.712830 794.121033,200.867889 793.728149,201.245148 
z"/>
<path fill="#F0F2F8" opacity="1.000000" stroke="none" 
	d="
M507.665588,810.689819 
	C485.710052,825.106567 462.109650,833.055664 436.026520,833.008240 
	C395.017517,832.933716 361.387939,816.890808 335.295288,785.514404 
	C289.903564,730.930847 298.077026,647.945923 352.950928,602.968262 
	C428.793152,540.803833 543.026855,581.307068 561.478882,677.714355 
	C571.993530,732.650940 552.684326,777.057861 507.665588,810.689819 
M325.153259,732.094727 
	C325.367920,732.724487 325.616028,733.345093 325.792389,733.985413 
	C342.881226,796.023743 407.554779,831.628784 468.821899,812.362610 
	C523.036194,795.314209 555.953613,740.870789 547.311646,685.403137 
	C537.197571,620.486694 473.307037,576.568054 409.436096,591.728210 
	C347.199646,606.500488 309.750244,668.400452 325.153259,732.094727 
z"/>
<path fill="#EFF1F7" opacity="1.000000" stroke="none" 
	d="
M656.541138,809.556580 
	C657.734253,825.318970 647.643066,836.432678 632.453674,836.512329 
	C621.809082,836.568176 611.163757,836.568726 600.519165,836.511902 
	C586.309021,836.436035 576.464294,826.481384 576.441040,812.260437 
	C576.418335,798.383972 586.664551,788.207825 600.767944,788.158691 
	C611.246399,788.122192 621.725098,788.133362 632.203613,788.155762 
	C645.338501,788.183899 654.369446,796.012451 656.541138,809.556580 
M595.115234,805.269348 
	C591.588318,808.500977 591.113403,812.378357 592.911743,816.595154 
	C594.649109,820.668945 598.240967,821.038696 602.079712,821.013794 
	C612.207947,820.948242 622.337646,821.064941 632.465271,820.961548 
	C638.275818,820.902222 641.142456,817.928589 641.131042,812.396484 
	C641.119446,806.778015 638.362732,803.942810 632.496887,803.877686 
	C623.697693,803.780029 614.895142,803.757874 606.096924,803.892334 
	C602.669800,803.944641 599.250366,804.509033 595.115234,805.269348 
z"/>
<path fill="#F0F2F8" opacity="1.000000" stroke="none" 
	d="
M279.078491,533.074219 
	C283.664032,528.449768 287.997437,524.074341 292.334625,519.702698 
	C300.951385,511.017517 315.678406,510.437988 324.463318,518.435913 
	C334.649567,527.709656 336.328247,542.301270 327.632324,551.897278 
	C319.371918,561.012695 310.677124,569.775940 301.700104,578.189087 
	C292.479156,586.830872 278.691071,586.257080 269.717712,577.540039 
	C260.238373,568.331421 259.179657,555.079529 267.430328,545.207397 
	C270.941742,541.005981 275.011871,537.271606 279.078491,533.074219 
M279.340149,565.098816 
	C284.514771,569.943542 288.103485,569.995483 292.981415,565.122009 
	C300.273560,557.836609 307.564606,550.547729 314.724701,543.133423 
	C318.742065,538.973450 318.678375,534.358215 314.902344,530.865234 
	C310.986877,527.243286 306.755676,527.379150 302.635956,531.474365 
	C295.207520,538.858459 287.882904,546.346802 280.480255,553.756958 
	C277.259094,556.981323 276.466553,560.501709 279.340149,565.098816 
z"/>
<path fill="#F0F2F8" opacity="1.000000" stroke="none" 
	d="
M470.586670,861.578552 
	C476.535248,855.034912 482.607483,849.525330 491.954926,849.797791 
	C501.965668,850.089539 508.963623,855.095154 513.437195,863.652344 
	C517.870544,872.132629 517.221252,881.000916 511.142609,888.015137 
	C502.332764,898.181091 492.802673,907.835815 482.753815,916.780701 
	C474.120941,924.465149 460.657898,922.905334 452.342712,914.608704 
	C443.291931,905.578064 441.916565,892.445068 449.880188,883.032593 
	C456.210419,875.550781 463.484192,868.867249 470.586670,861.578552 
M484.819183,893.319946 
	C489.255371,888.820862 493.836304,884.453308 498.083557,879.782410 
	C501.700623,875.804626 501.162201,871.126770 497.125580,867.521179 
	C493.597015,864.369507 489.696808,864.490906 486.141663,868.013733 
	C478.346069,875.738403 470.521515,883.436890 462.873749,891.306335 
	C459.023224,895.268494 459.364655,899.790771 463.342957,903.583130 
	C466.953888,907.025146 470.885742,907.034302 474.808502,903.355530 
	C478.081299,900.286316 481.157227,897.007263 484.819183,893.319946 
z"/>
<path fill="#F0F2F8" opacity="1.000000" stroke="none" 
	d="
M248.819916,709.036255 
	C238.953140,713.186462 230.435226,711.163940 223.216431,704.304932 
	C214.903030,696.405884 206.819778,688.242371 198.984207,679.868408 
	C189.553650,669.789917 190.352066,655.857727 200.506378,646.072876 
	C209.951614,636.971436 223.841324,637.304504 233.517532,646.902954 
	C240.836990,654.163696 248.151947,661.429626 255.404297,668.757080 
	C268.563965,682.053162 265.724304,700.270325 248.819916,709.036255 
M214.219803,655.388123 
	C206.576279,659.835693 205.845139,665.101807 212.040451,671.306152 
	C219.101791,678.377808 226.133820,685.479919 233.277588,692.467590 
	C237.583130,696.679077 241.545975,696.710510 245.489151,692.859558 
	C249.092712,689.340210 249.045059,684.555420 245.134674,680.544250 
	C237.810394,673.031189 230.542892,665.447632 222.884491,658.286194 
	C220.965836,656.492065 217.651672,656.190308 214.219803,655.388123 
z"/>
<path fill="#F0F2F8" opacity="1.000000" stroke="none" 
	d="
M347.517426,896.259399 
	C341.803101,907.832642 331.375732,913.150452 319.922455,910.575867 
	C308.263702,907.955078 301.261566,898.946106 301.183472,886.300232 
	C301.118683,875.809875 301.113220,865.318420 301.184113,854.828186 
	C301.279175,840.764832 311.146973,830.643616 324.801788,830.484070 
	C338.587952,830.322937 348.787781,840.105713 349.052216,854.130432 
	C349.268799,865.615906 349.162506,877.109924 349.017273,888.597839 
	C348.986359,891.042603 348.167938,893.477356 347.517426,896.259399 
M316.873169,866.503906 
	C316.873352,872.819763 316.853058,879.135742 316.879272,885.451538 
	C316.907837,892.332031 319.454590,895.419006 325.070984,895.461792 
	C330.871826,895.505981 333.671387,892.232788 333.714783,885.209961 
	C333.760010,877.897156 333.750671,870.583679 333.714539,863.270752 
	C333.697296,859.786804 333.891907,856.256409 333.402496,852.831055 
	C332.700134,847.915100 329.150299,845.557983 324.074066,846.048706 
	C319.669189,846.474487 317.045227,849.306091 316.902863,854.039246 
	C316.787994,857.858643 316.875458,861.684082 316.873169,866.503906 
z"/>
<path fill="#F1F3F9" opacity="1.000000" stroke="none" 
	d="
M481.252441,462.619019 
	C491.655823,472.922211 502.427460,482.432404 511.677399,493.244446 
	C519.514221,502.404755 516.886108,516.116333 507.413300,524.575256 
	C498.496307,532.537842 485.363159,532.867554 476.566650,524.710510 
	C468.156982,516.912109 460.205414,508.611420 452.198822,500.388977 
	C443.240295,491.188995 442.307251,478.895538 449.610382,469.176910 
	C457.518982,458.652374 469.109131,456.143494 481.252441,462.619019 
M489.287750,514.671936 
	C493.878448,516.008850 497.184784,514.005127 499.324890,510.230011 
	C501.607605,506.203278 500.299683,502.692627 497.064056,499.518890 
	C489.459717,492.059998 482.068085,484.384338 474.465973,476.923157 
	C471.345917,473.860840 466.773926,473.899506 463.699554,476.625793 
	C459.852997,480.036804 458.727905,484.734100 461.966156,488.083038 
	C470.623016,497.035858 479.706512,505.576141 489.287750,514.671936 
z"/>
<path fill="#F0F2F8" opacity="1.000000" stroke="none" 
	d="
M649.250549,577.115356 
	C642.676147,584.417725 636.356873,591.456726 629.862244,598.329956 
	C626.551636,601.833496 623.133728,605.294739 619.402161,608.329834 
	C610.215881,615.801392 597.823853,614.903687 588.541687,606.386414 
	C580.032410,598.578552 577.741943,585.364258 585.100708,576.602173 
	C594.166992,565.806824 604.203613,555.698425 614.706482,546.280701 
	C622.242004,539.523804 635.190735,540.724670 642.946045,547.209961 
	C652.225037,554.969421 654.604492,565.817017 649.250549,577.115356 
M620.375244,561.760986 
	C613.583801,568.608826 606.763794,575.428650 600.011047,582.314453 
	C595.521973,586.891968 595.345581,591.363464 599.353943,595.363892 
	C603.098572,599.101135 607.582764,598.811707 611.975342,594.425110 
	C618.917175,587.492676 625.819397,580.520386 632.705383,573.532410 
	C637.496399,568.670349 638.010315,564.415710 634.375061,560.470642 
	C630.663147,556.442383 625.916992,556.710083 620.375244,561.760986 
z"/>
<path fill="#0D141A00" opacity="1.000000" stroke="none" 
	d="
M325.081543,731.685547 
	C309.750244,668.400452 347.199646,606.500488 409.436096,591.728210 
	C473.307037,576.568054 537.197571,620.486694 547.311646,685.403137 
	C555.953613,740.870789 523.036194,795.314209 468.821899,812.362610 
	C407.554779,831.628784 342.881226,796.023743 325.792389,733.985413 
	C325.616028,733.345093 325.367920,732.724487 325.081543,731.685547 
z"/>
<path fill="#0E151B00" opacity="1.000000" stroke="none" 
	d="
M595.471313,805.054810 
	C599.250366,804.509033 602.669800,803.944641 606.096924,803.892334 
	C614.895142,803.757874 623.697693,803.780029 632.496887,803.877686 
	C638.362732,803.942810 641.119446,806.778015 641.131042,812.396484 
	C641.142456,817.928589 638.275818,820.902222 632.465271,820.961548 
	C622.337646,821.064941 612.207947,820.948242 602.079712,821.013794 
	C598.240967,821.038696 594.649109,820.668945 592.911743,816.595154 
	C591.113403,812.378357 591.588318,808.500977 595.471313,805.054810 
z"/>
<path fill="#11181E00" opacity="1.000000" stroke="none" 
	d="
M279.096436,564.818237 
	C276.466553,560.501709 277.259094,556.981323 280.480255,553.756958 
	C287.882904,546.346802 295.207520,538.858459 302.635956,531.474365 
	C306.755676,527.379150 310.986877,527.243286 314.902344,530.865234 
	C318.678375,534.358215 318.742065,538.973450 314.724701,543.133423 
	C307.564606,550.547729 300.273560,557.836609 292.981415,565.122009 
	C288.103485,569.995483 284.514771,569.943542 279.096436,564.818237 
z"/>
<path fill="#12181E00" opacity="1.000000" stroke="none" 
	d="
M484.569763,893.570557 
	C481.157227,897.007263 478.081299,900.286316 474.808502,903.355530 
	C470.885742,907.034302 466.953888,907.025146 463.342957,903.583130 
	C459.364655,899.790771 459.023224,895.268494 462.873749,891.306335 
	C470.521515,883.436890 478.346069,875.738403 486.141663,868.013733 
	C489.696808,864.490906 493.597015,864.369507 497.125580,867.521179 
	C501.162201,871.126770 501.700623,875.804626 498.083557,879.782410 
	C493.836304,884.453308 489.255371,888.820862 484.569763,893.570557 
z"/>
<path fill="#11181E00" opacity="1.000000" stroke="none" 
	d="
M214.599350,655.295410 
	C217.651672,656.190308 220.965836,656.492065 222.884491,658.286194 
	C230.542892,665.447632 237.810394,673.031189 245.134674,680.544250 
	C249.045059,684.555420 249.092712,689.340210 245.489151,692.859558 
	C241.545975,696.710510 237.583130,696.679077 233.277588,692.467590 
	C226.133820,685.479919 219.101791,678.377808 212.040451,671.306152 
	C205.845139,665.101807 206.576279,659.835693 214.599350,655.295410 
z"/>
<path fill="#12181E00" opacity="1.000000" stroke="none" 
	d="
M316.873169,866.005371 
	C316.875458,861.684082 316.787994,857.858643 316.902863,854.039246 
	C317.045227,849.306091 319.669189,846.474487 324.074066,846.048706 
	C329.150299,845.557983 332.700134,847.915100 333.402496,852.831055 
	C333.891907,856.256409 333.697296,859.786804 333.714539,863.270752 
	C333.750671,870.583679 333.760010,877.897156 333.714783,885.209961 
	C333.671387,892.232788 330.871826,895.505981 325.070984,895.461792 
	C319.454590,895.419006 316.907837,892.332031 316.879272,885.451538 
	C316.853058,879.135742 316.873352,872.819763 316.873169,866.005371 
z"/>
<path fill="#11181E00" opacity="1.000000" stroke="none" 
	d="
M488.954102,514.476135 
	C479.706512,505.576141 470.623016,497.035858 461.966156,488.083038 
	C458.727905,484.734100 459.852997,480.036804 463.699554,476.625793 
	C466.773926,473.899506 471.345917,473.860840 474.465973,476.923157 
	C482.068085,484.384338 489.459717,492.059998 497.064056,499.518890 
	C500.299683,502.692627 501.607605,506.203278 499.324890,510.230011 
	C497.184784,514.005127 493.878448,516.008850 488.954102,514.476135 
z"/>
<path fill="#11181E00" opacity="1.000000" stroke="none" 
	d="
M620.632446,561.496155 
	C625.916992,556.710083 630.663147,556.442383 634.375061,560.470642 
	C638.010315,564.415710 637.496399,568.670349 632.705383,573.532410 
	C625.819397,580.520386 618.917175,587.492676 611.975342,594.425110 
	C607.582764,598.811707 603.098572,599.101135 599.353943,595.363892 
	C595.345581,591.363464 595.521973,586.891968 600.011047,582.314453 
	C606.763794,575.428650 613.583801,568.608826 620.632446,561.496155 
z"/>
</svg>